<svg width="12" height="14" viewBox="0 0 12 14" fill="none" xmlns="http://www.w3.org/2000/svg">
<path d="M10.0001 13.6664H2.00008C1.2637 13.6664 0.666748 13.0695 0.666748 12.3331V1.66643C0.666748 0.930054 1.2637 0.333101 2.00008 0.333101H6.66675C6.67272 0.332326 6.67877 0.332326 6.68475 0.333101H6.68875C6.69504 0.335073 6.70152 0.336413 6.70808 0.337101C6.76687 0.340869 6.82492 0.352299 6.88075 0.371101H6.89075H6.90075H6.90875C6.92105 0.379718 6.93264 0.389304 6.94341 0.399767C7.01604 0.43205 7.08222 0.477224 7.13875 0.533101L11.1387 4.5331C11.1946 4.58962 11.2398 4.6558 11.2721 4.72843C11.2781 4.7431 11.2827 4.7571 11.2874 4.77243V4.78177V4.7911C11.306 4.84669 11.317 4.90455 11.3201 4.9631C11.3207 4.96974 11.3222 4.97626 11.3247 4.98243V4.98643C11.3281 4.99053 11.331 4.99501 11.3334 4.99977V12.3331C11.3334 13.0695 10.7365 13.6664 10.0001 13.6664ZM2.00008 1.66643V12.3331H10.0001V5.66643H6.66675C6.29856 5.66643 6.00008 5.36796 6.00008 4.99977V1.66643H2.00008ZM7.33341 2.6091V4.3331H9.05741L7.33341 2.6091ZM6.66675 10.9998H5.33341V9.66643H4.00008V8.3331H5.33341V6.99977H6.66675V8.3331H8.00008V9.66643H6.66675V10.9998Z" fill="white"/>
</svg>
