<svg width="18" height="18" viewBox="0 0 18 18" fill="none" xmlns="http://www.w3.org/2000/svg">
<path d="M12.789 6.48892L11.511 5.21094L8.99998 7.73092L6.48898 5.21094L5.211 6.48892L7.73098 8.99992L5.211 11.5109L6.48898 12.7889L8.99998 10.2689L11.511 12.7889L12.789 11.5109L10.269 8.99992L12.789 6.48892Z" fill="black"/>
<path d="M8.99998 0C4.02945 0 0 4.02945 0 8.99998C0 13.9705 4.02945 18 8.99998 18C13.9705 18 18 13.9705 18 8.99998C18 4.02945 13.9705 0 8.99998 0ZM8.99998 16.371C4.9291 16.371 1.62898 13.0709 1.62898 8.99998C1.62898 4.9291 4.9291 1.62898 8.99998 1.62898C13.0688 1.63392 16.366 4.93112 16.371 8.99998C16.371 13.0709 13.0709 16.371 8.99998 16.371Z" fill="black"/>
</svg>
