<svg width="26" height="24" viewBox="0 0 26 24" fill="none" xmlns="http://www.w3.org/2000/svg">
<path d="M2.83362 20.6751C3.43002 20.3144 4.00013 19.9674 4.54812 19.6305C5.4742 20.0211 8.92493 21.3847 11.9563 21.3846C12.3153 21.3846 12.6687 21.3655 13.011 21.3234C15.6316 21.0007 19.756 18.8484 21.1459 16.5571L21.8297 15.4298L20.5198 15.2799C20.4425 15.271 20.3282 15.2602 20.1902 15.2483C21.4049 14.1242 22.152 12.8641 23.1315 11.2123L23.1385 11.2007C24.5229 8.86591 25.0427 5.60054 25.5012 2.71963C25.598 2.11174 25.6893 1.53758 25.7847 1.00114L25.9593 0.0194774L24.9624 0.00866638C21.6254 -0.0263567 17.2683 1.01921 14.3668 2.55403C12.2357 3.68131 10.7344 4.7249 9.4125 6.5871C9.3393 6.2872 9.28136 6.06411 9.26435 5.99897L8.84926 4.412L7.79856 5.67177C7.68758 5.80482 5.07008 8.95622 4.12705 11.2203C2.8339 14.3249 3.2312 16.9383 3.5905 18.2367C3.06977 18.5563 2.52753 18.8861 1.95934 19.2298L2.83362 20.6751ZM4.9796 16.5098C4.81242 14.9582 5.05021 13.3971 5.68642 11.8697C6.17269 10.7023 7.22085 9.19328 8.02751 8.11719C8.09981 8.46984 8.15257 8.77598 8.16203 8.95003L8.33134 12.059L9.75637 9.29063C11.066 6.74633 12.2773 5.57024 15.1566 4.04713C17.5144 2.79993 21.0566 1.87778 23.9503 1.72074C23.9116 1.95971 23.8727 2.20409 23.8329 2.45409C23.3981 5.18572 22.9053 8.28177 21.6854 10.3391L21.6785 10.3507C20.3172 12.6463 19.5674 13.9108 17.4301 15.2002L15.1344 16.5851L17.8093 16.766C18.0111 16.7797 18.3366 16.8022 18.6902 16.8275C17.116 18.2098 14.4858 19.4397 12.8045 19.6467C10.6911 19.9069 7.94603 19.0905 6.33981 18.5123C10.8353 15.657 13.8394 13.2978 17.8506 8.91399L16.6043 7.77366C12.5968 12.1537 9.72821 14.3867 5.10263 17.2979C5.05477 17.0656 5.01102 16.8018 4.9796 16.5098Z" fill="black"/>
</svg>
