<svg width="25" height="24" viewBox="0 0 25 24" fill="none" xmlns="http://www.w3.org/2000/svg">
<g clip-path="url(#clip0)">
<path d="M23.1503 19.1819L24.4607 17.5739L23.1503 15.9658L24.4606 14.3576L23.1502 12.7493L24.4606 11.141L23.1502 9.53261L24.4999 7.87586L21.3371 4.71254L19.681 6.06224L18.073 4.75189L16.4649 6.06229L14.8567 4.75193L13.2484 6.06234L11.6401 4.75193L11.2637 5.05861C11.1312 4.26718 11.0637 3.46434 11.0637 2.65451V1.40946H12.024V0.000976562H3.70117V1.40946H4.66152V2.65451C4.66152 4.40582 4.34968 6.12525 3.73478 7.7651L0.679455 15.9126C0.560438 16.23 0.500061 16.5629 0.500061 16.9019C0.500061 18.4557 1.76413 19.7198 3.31792 19.7198H6.17789L5.22801 20.9733L8.38569 23.992L10.0307 22.6513L11.6387 23.9616L13.2468 22.6512L14.855 23.9616L16.4633 22.6512L18.0716 23.9616L19.68 22.6511L21.3368 24.0008L24.5001 20.8381L23.1503 19.1819ZM3.31792 18.3113C2.54077 18.3113 1.90854 17.6791 1.90854 16.9019C1.90854 16.7324 1.93873 16.5659 1.99827 16.4071L5.05355 8.25962C5.72798 6.46113 6.06996 4.57531 6.06996 2.65451V1.40946H9.6552V2.65451C9.6552 4.57526 9.99714 6.46108 10.6716 8.25962L10.7437 8.45193H7.86258V9.86041H11.2719L11.8 11.2689H7.86258V12.6774H12.3282L12.8564 14.0859H7.86258V15.4943H13.3846L13.7269 16.4071C13.7865 16.566 13.8167 16.7324 13.8167 16.9019C13.8167 17.6791 13.1844 18.3113 12.4073 18.3113H3.31792V18.3113ZM22.6438 14.3576L21.3334 15.966L22.6438 17.574L21.3333 19.182L22.6044 20.7416L21.2402 22.1056L19.6799 20.8345L18.0715 22.1448L16.4633 20.8344L14.855 22.1448L13.2467 20.8344L11.6386 22.1448L10.0306 20.8343L8.45987 22.1145L7.10909 20.823L7.94512 19.7198H12.4073C13.9611 19.7198 15.2252 18.4557 15.2252 16.9019C15.2252 16.563 15.1648 16.23 15.0458 15.9126L11.9905 7.7651C11.8458 7.37941 11.7186 6.98917 11.6076 6.59531L11.6402 6.56883L13.2485 7.87924L14.8568 6.56883L16.4651 7.87928L18.0731 6.56888L19.6811 7.87933L21.2408 6.60822L22.6047 7.97243L21.3336 9.5328L22.644 11.1411L21.3336 12.7494L22.6438 14.3576Z" fill="black"/>
</g>
<defs>
<clipPath id="clip0">
<rect width="24" height="24" fill="white" transform="translate(0.500061)"/>
</clipPath>
</defs>
</svg>
