<svg width="14" height="14" viewBox="0 0 14 14" fill="none" xmlns="http://www.w3.org/2000/svg">
<path d="M0.437489 4.37498H13.5625C13.804 4.37498 14 4.17896 14 3.93749C14 3.69598 13.8039 3.5 13.5625 3.5H0.437489C0.195979 3.5 0 3.69602 0 3.93749C0 4.17896 0.196015 4.37498 0.437489 4.37498Z" fill="#B4B4B4"/>
<path d="M13.5625 6.5625H0.437489C0.195979 6.5625 0 6.75852 0 6.99999C0 7.24146 0.196015 7.43748 0.437489 7.43748H13.5625C13.804 7.43748 14 7.24146 14 6.99999C14 6.75852 13.804 6.5625 13.5625 6.5625Z" fill="#B4B4B4"/>
<path d="M13.5625 9.625H4.81251C4.571 9.625 4.37502 9.82102 4.37502 10.0625C4.37502 10.304 4.57103 10.5 4.81251 10.5H13.5625C13.804 10.5 14 10.304 14 10.0625C14 9.82098 13.804 9.625 13.5625 9.625Z" fill="#B4B4B4"/>
</svg>
