<svg width="18" height="19" viewBox="0 0 18 19" fill="none" xmlns="http://www.w3.org/2000/svg">
<g clip-path="url(#clip0)">
<path d="M2.64683 15.853C3.47156 16.6777 4.43226 17.3253 5.50232 17.7779C6.61087 18.2468 7.78763 18.4845 8.99997 18.4845C10.2123 18.4845 11.3891 18.2468 12.4976 17.7779C13.5676 17.3253 14.5284 16.6777 15.3531 15.853C16.1778 15.0282 16.8255 14.0675 17.278 12.9975C17.7469 11.8889 17.9847 10.7121 17.9847 9.49984C17.9847 8.28747 17.7469 7.11071 17.278 6.00219C16.8255 4.93213 16.1778 3.97143 15.3531 3.1467C14.5284 2.32197 13.5677 1.67433 12.4976 1.22175C11.389 0.752847 10.2123 0.515137 8.99997 0.515137C7.78763 0.515137 6.61087 0.752878 5.50232 1.22175C4.43226 1.67433 3.47156 2.322 2.64683 3.1467C1.8221 3.9714 1.17446 4.93213 0.721852 6.00216C0.253015 7.11071 0.015274 8.28747 0.015274 9.49984C0.015274 10.7122 0.253015 11.8889 0.721882 12.9975C1.17446 14.0675 1.82213 15.0282 2.64683 15.853ZM8.99997 1.82677C13.2377 1.82677 16.673 5.26212 16.673 9.49984C16.673 13.7375 13.2377 17.1729 8.99997 17.1729C4.76225 17.1729 1.3269 13.7375 1.3269 9.49984C1.3269 5.26212 4.76225 1.82677 8.99997 1.82677Z" fill="#B4B4B4"/>
<path d="M8.99997 18.5009C7.78549 18.5009 6.60674 18.2628 5.49635 17.7932C4.42445 17.3398 3.4621 16.691 2.63603 15.8649C1.80989 15.0388 1.16115 14.0764 0.707802 13.0046C0.238108 11.8941 -3.05176e-05 10.7153 -3.05176e-05 9.50099C-3.05176e-05 8.28663 0.238108 7.10782 0.707772 5.99734C1.16112 4.9255 1.80989 3.96315 2.636 3.13701C3.4621 2.31087 4.42448 1.66213 5.49632 1.20878C6.6068 0.739115 7.78558 0.500977 8.99994 0.500977C10.2144 0.500977 11.3932 0.739116 12.5035 1.20881C13.5754 1.66216 14.5377 2.31093 15.3639 3.13704C16.1901 3.96324 16.8388 4.92559 17.2921 5.99737C17.7618 7.10785 18 8.28663 18 9.50099C18 10.7153 17.7618 11.8941 17.2921 13.0046C16.8388 14.0764 16.1901 15.0387 15.3639 15.865C14.5378 16.691 13.5754 17.3398 12.5035 17.7932C11.3932 18.2628 10.2144 18.5009 8.99997 18.5009ZM8.99997 0.531594C7.78971 0.531594 6.61497 0.768906 5.50829 1.23698C4.4401 1.68879 3.48099 2.33533 2.65767 3.15865C1.83432 3.98201 1.18778 4.94108 0.73597 6.00925C0.267898 7.11596 0.0305864 8.29073 0.0305864 9.50099C0.0305864 10.7112 0.267898 11.886 0.73597 12.9927C1.18778 14.0609 1.83432 15.0199 2.65767 15.8433C3.48096 16.6666 4.44004 17.3131 5.50829 17.765C6.61485 18.233 7.78962 18.4703 8.99997 18.4703C10.2103 18.4703 11.3851 18.233 12.4916 17.7649C13.5599 17.3131 14.519 16.6666 15.3423 15.8433C16.1656 15.0199 16.8122 14.0608 17.2639 12.9927C17.732 11.886 17.9694 10.7112 17.9694 9.50099C17.9694 8.29073 17.732 7.11596 17.2639 6.00931C16.8122 4.94117 16.1656 3.9821 15.3423 3.15868C14.5189 2.33536 13.5598 1.68882 12.4916 1.23701C11.385 0.768906 10.2103 0.531594 8.99997 0.531594ZM8.99997 17.1893C6.94634 17.1893 5.0156 16.3896 3.56347 14.9375C2.11134 13.4853 1.3116 11.5546 1.3116 9.50099C1.3116 7.44736 2.11131 5.51662 3.56347 4.06449C5.0156 2.61235 6.94634 1.81261 8.99997 1.81261C11.0536 1.81261 12.9843 2.61235 14.4364 4.06449C15.8886 5.51665 16.6883 7.44736 16.6883 9.50099C16.6883 11.5546 15.8886 13.4853 14.4364 14.9375C12.9843 16.3896 11.0536 17.1893 8.99997 17.1893ZM8.99997 1.84323C6.95451 1.84323 5.0315 2.63979 3.58512 4.08613C2.13878 5.53251 1.34222 7.45553 1.34222 9.50099C1.34222 11.5465 2.13878 13.4695 3.58512 14.9158C5.03146 16.3621 6.95451 17.1587 8.99997 17.1587C11.0454 17.1587 12.9684 16.3621 14.4148 14.9158C15.8611 13.4695 16.6577 11.5464 16.6577 9.50099C16.6577 7.45553 15.8611 5.53248 14.4148 4.08613C12.9684 2.63976 11.0454 1.84323 8.99997 1.84323Z" fill="#B4B4B4"/>
<path d="M7.0111 12.7708C7.13409 12.8939 7.30089 12.9629 7.47482 12.9629C7.64879 12.9629 7.81556 12.8938 7.93855 12.7708L13.5533 7.15616C13.8094 6.90005 13.8094 6.48483 13.5533 6.22872C13.2972 5.97261 12.8819 5.97257 12.6258 6.22872L7.47482 11.3797L5.37431 9.27917C5.1182 9.02302 4.70297 9.02302 4.44686 9.27917C4.19075 9.53528 4.19075 9.9505 4.44686 10.2066L7.0111 12.7708Z" fill="#B4B4B4"/>
<path d="M7.47479 12.9784C7.29553 12.9784 7.12698 12.9086 7.00023 12.7819L4.436 10.2176C4.17435 9.95594 4.17435 9.53018 4.436 9.2685C4.56275 9.14172 4.7313 9.07191 4.91056 9.07191C5.08983 9.07191 5.25834 9.14172 5.38513 9.2685L7.47482 11.3582L12.6149 6.21805C12.7417 6.09126 12.9102 6.02148 13.0895 6.02148C13.2687 6.02148 13.4373 6.09129 13.5641 6.21805C13.6909 6.3448 13.7607 6.51335 13.7607 6.69261C13.7607 6.87187 13.6909 7.04039 13.5641 7.16717L7.94936 12.7819C7.82263 12.9086 7.65409 12.9784 7.47479 12.9784ZM4.91056 9.10256C4.73948 9.10256 4.57864 9.16918 4.45768 9.29018C4.20797 9.53992 4.20797 9.94624 4.45768 10.196L7.02191 12.7602C7.14287 12.8812 7.30371 12.9478 7.47479 12.9478C7.64591 12.9478 7.80674 12.8812 7.92771 12.7602L13.5424 7.14552C13.6634 7.02456 13.73 6.8637 13.73 6.69264C13.73 6.52158 13.6634 6.36069 13.5424 6.23972C13.4214 6.11872 13.2606 6.05213 13.0895 6.05213C12.9184 6.05213 12.7575 6.11875 12.6366 6.23972L7.47479 11.4015L5.36345 9.29018C5.24248 9.16918 5.08165 9.10256 4.91056 9.10256Z" fill="#B4B4B4"/>
</g>
<defs>
<clipPath id="clip0">
<rect width="18" height="18" fill="white" transform="translate(-3.05176e-05 0.5)"/>
</clipPath>
</defs>
</svg>
