<svg width="15" height="15" viewBox="0 0 15 15" fill="none" xmlns="http://www.w3.org/2000/svg">
<path d="M1.315 14.4345C1.10461 14.4341 0.904051 14.3454 0.76225 14.19C0.617834 14.0358 0.546073 13.8274 0.565 13.617L0.74875 11.5965L9.23725 3.11098L11.89 5.76298L3.40375 14.2477L1.38325 14.4315C1.36 14.4337 1.33675 14.4345 1.315 14.4345ZM12.4195 5.23273L9.7675 2.58073L11.3583 0.989985C11.4989 0.849152 11.6898 0.77002 11.8889 0.77002C12.0879 0.77002 12.2788 0.849152 12.4195 0.989985L14.0103 2.58073C14.1511 2.72141 14.2302 2.9123 14.2302 3.11136C14.2302 3.31042 14.1511 3.50131 14.0103 3.64198L12.4203 5.23198L12.4195 5.23273Z" fill="#797979"/>
</svg>
