<?xml version="1.0" encoding="utf-8"?><svg viewBox="0 0 18 18" xmlns="http://www.w3.org/2000/svg" xmlns:xlink="http://www.w3.org/1999/xlink"><style>:root>svg{display:none}:root>svg:target{display:block}</style><svg fill="none" viewBox="0 0 18 18" id="icon-add" xmlns="http://www.w3.org/2000/svg"><path d="M17.902 8.003H9.997V.098H8.003v7.905H.098v1.994h7.905v7.906h1.994V9.997h7.905V8.003z" fill="#2E3A59"/></svg><svg fill="none" viewBox="0 0 12 14" id="icon-add-document" xmlns="http://www.w3.org/2000/svg"><path d="M10 13.666H2a1.333 1.333 0 01-1.333-1.333V1.666C.667.93 1.264.333 2 .333h4.667a.07.07 0 01.018 0h.004a.1.1 0 00.02.004.677.677 0 01.172.034h.028A.282.282 0 016.943.4a.658.658 0 01.196.133l4 4a.658.658 0 01.148.24v.019a.65.65 0 01.033.171c0 .007.002.013.005.02v.003a.07.07 0 01.008.014v7.333c0 .736-.597 1.333-1.333 1.333zm-8-12v10.667h8V5.666H6.667A.667.667 0 016 5V1.666H2zm5.333.943v1.724h1.724L7.333 2.61zM6.667 11H5.333V9.667H4V8.333h1.333V7h1.334v1.333H8v1.333H6.667V11z" fill="#fff"/></svg><svg fill="none" viewBox="0 0 5 4" id="icon-caret" xmlns="http://www.w3.org/2000/svg"><path d="M2.5 3.25L5 .75H0l2.5 2.5z" fill="#343434"/></svg><svg fill="none" viewBox="0 0 8 4" id="icon-caret-grey" xmlns="http://www.w3.org/2000/svg"><path d="M4 3.875L7.75.125H.25L4 3.875z" fill="#B4B4B4"/></svg><svg fill="none" viewBox="0 0 10 10" id="icon-checkbox-mark" xmlns="http://www.w3.org/2000/svg"><g clip-path="url(#eclip0)"><path d="M9.853 1.475a.5.5 0 00-.707 0l-5.99 5.99L.853 5.162a.5.5 0 00-.707.707l2.656 2.657a.5.5 0 00.707 0l6.344-6.344a.5.5 0 000-.707z" fill="#000"/></g><defs><clipPath id="eclip0"><path fill="#fff" d="M0 0h10v10H0z"/></clipPath></defs></svg><svg fill="none" viewBox="0 0 18 18" id="icon-close" xmlns="http://www.w3.org/2000/svg"><path d="M12.789 6.489L11.511 5.21 9 7.73 6.489 5.21 5.211 6.489l2.52 2.51-2.52 2.512 1.278 1.278L9 10.269l2.511 2.52 1.278-1.278L10.269 9l2.52-2.511z" fill="#000"/><path d="M9 0a9 9 0 100 18A9 9 0 009 0zm0 16.371A7.371 7.371 0 019 1.629 7.38 7.38 0 0116.371 9c0 4.07-3.3 7.371-7.371 7.371z" fill="#000"/></svg><svg fill="none" viewBox="0 0 14 16" id="icon-delete" xmlns="http://www.w3.org/2000/svg"><path d="M10.75 15.5h-7.5a1.5 1.5 0 01-1.5-1.5V4.25H.25v-1.5h3V2A1.5 1.5 0 014.75.5h4.5a1.5 1.5 0 011.5 1.5v.75h3v1.5h-1.5V14a1.5 1.5 0 01-1.5 1.5zM3.25 4.25V14h7.5V4.25h-7.5zM4.75 2v.75h4.5V2h-4.5zm4.5 10.5h-1.5V5.75h1.5v6.75zm-3 0h-1.5V5.75h1.5v6.75z" fill="#797979"/></svg><svg fill="none" viewBox="0 0 15 15" id="icon-edit" xmlns="http://www.w3.org/2000/svg"><path d="M1.315 14.434a.75.75 0 01-.553-.244.741.741 0 01-.197-.573l.184-2.02L9.237 3.11l2.653 2.652-8.486 8.485-2.02.184a.73.73 0 01-.069.002zm11.104-9.201L9.767 2.58 11.358.99a.75.75 0 011.061 0l1.591 1.59a.75.75 0 010 1.062l-1.59 1.59z" fill="#797979"/></svg><svg fill="none" viewBox="0 0 10 10" id="icon-home" xmlns="http://www.w3.org/2000/svg"><path d="M8.5 10h-7a.5.5 0 01-.5-.5v-4H0L4.646.854a.5.5 0 01.708 0L10 5.5H9v4a.5.5 0 01-.5.5zM4 6.5h2V9h2V4.914l-3-3-3 3V9h2V6.5z" fill="#2E3A59"/></svg><svg fill="none" viewBox="0 0 14 14" id="icon-input" xmlns="http://www.w3.org/2000/svg"><path d="M.437 4.375h13.126a.438.438 0 000-.875H.437a.438.438 0 000 .875zM13.563 6.563H.437a.438.438 0 000 .874h13.126a.438.438 0 000-.875zM13.563 9.625h-8.75a.438.438 0 000 .875h8.75a.438.438 0 000-.875z" fill="#B4B4B4"/></svg></svg>